<svg version="1.1" xmlns="http://www.w3.org/2000/svg" xmlns:xlink="http://www.w3.org/1999/xlink" x="0px" y="0px" viewBox="0 0 1000 1000" enable-background="new 0 0 1000 1000" xml:space="preserve">
<g fill="#fff" transform="translate(0,511) scale(.08,-.08)"><path d="M8620.2,5000.9c-5.8-11.6-44.4-135.2-86.9-276.1c-42.5-142.9-100.4-318.6-129.4-391.9l-54.1-133.2l-222-129.4c-121.6-69.5-222.1-135.2-225.9-144.8c-1.9-9.7-17.4-160.3-32.8-334c-17.4-173.8-32.8-320.5-38.6-324.4c-3.8-3.9-27,19.3-50.2,50.2l-40.5,59.9l38.6,391.9c23.2,214.3,40.5,430.6,40.5,476.9c-1.9,106.2-65.7,268.4-175.7,438.3c-92.7,140.9-123.6,137.1-50.2-7.7c75.3-148.7,148.7-368.8,148.7-446c0-85-59.9-724-69.5-735.6c-3.9-3.9-69.5,52.1-146.8,125.5c-310.8,295.4-631.4,509.7-758.8,509.7c-69.5,0-125.5-54.1-125.5-121.6c0-57.9,69.5-173.8,148.7-247.1c146.7-139,536.8-403.5,745.3-502c77.2-38.6,90.7-52.1,90.7-100.4c0-46.3-5.8-54.1-32.8-42.5c-139,59.9-376.5,88.8-401.6,48.3c-5.8-11.6-71.4-69.5-142.9-131.3c-129.3-112-131.3-113.9-312.8-139c-210.4-29-229.8-32.8-229.8-69.5c0-21.2,46.3-27,237.5-27h235.6l140.9,127.4l140.9,129.4l102.3-11.6c139-13.5,243.3-59.9,243.3-108.1c0-32.8-5.8-34.8-56-15.4c-48.3,17.4-63.7,15.4-100.4-15.4c-32.8-32.8-38.6-54.1-30.9-123.6c9.7-83,3.9-92.7-123.6-251c-73.4-90.7-133.2-171.8-133.2-179.6c0-40.5,52.1-1.9,195,148.7c150.6,156.4,162.2,164.1,241.3,164.1c48.3,0,94.6,11.6,112,30.9c36.7,34.8,38.6,54.1,11.6,106.2c-17.4,30.9-13.5,36.7,17.4,36.7c44.4,0,100.4-85,144.8-225.9l32.8-100.4l-115.8-173.8l-115.9-171.8l21.3-214.3c15.4-152.5,29-214.3,48.3-214.3c19.3,0,25.1,48.3,25.1,202.7v204.7l117.8,173.8l115.9,173.8l-21.2,98.5c-11.6,54.1-36.7,137.1-57.9,183.4l-36.7,83h54.1c30.9,0,59.8-11.6,65.6-25.1c25.1-63.7,370.7-500.1,507.8-643c218.2-222,366.8-283.8,459.5-189.2c104.2,104.3-81.1,376.5-498.2,735.6c-121.6,104.3-220.1,189.2-218.2,191.1s171.8,40.5,378.4,85l376.5,79.2l171.8-40.5c94.6-23.2,218.2-57.9,276.1-77.2c169.9-59.9,129.4,1.9-65.6,92.7c-289.6,139-310.9,139-820.6,34.8l-440.2-90.8l-57.9,42.5c-32.8,23.2-54.1,44.4-50.2,48.3c3.9,3.9,140.9,34.8,305.1,67.6c164.1,32.8,310.9,67.6,328.2,77.2c17.4,7.7,67.6,106.2,112,214.3c44.4,110,100.4,216.2,123.6,235.5c48.3,42.5,447.9,235.6,627.5,303.1c65.7,25.1,119.7,57.9,119.7,69.5c0,86.9-455.6-77.2-762.7-274.2c-90.7-57.9-102.3-73.4-179.6-264.5l-83-202.7l-216.3-42.5c-119.7-25.1-237.5-48.3-264.5-54.1c-40.5-9.7-25.1,13.5,79.2,121.6c150.6,158.3,276.1,324.4,307,401.6c17.4,46.3,15.4,61.8-7.7,85c-44.4,46.3-173.8-44.4-386.2-270.3l-187.3-196.9l9.6,75.3c5.8,42.5,21.3,160.2,30.9,260.6c11.6,100.4,23.2,183.4,25.1,185.4s90.7,54.1,195,115.8c189.2,110,191.1,112,252.9,247.1c133.2,287.7,239.4,720.2,187.3,753C8641.4,5012.5,8627.9,5010.6,8620.2,5000.9z"/><path d="M4760.6,4184.2c-5.8-77.2-25.1-189.2-40.5-247.1c-15.4-57.9-29-112-29-119.7c0-9.7,135.2-15.4,301.2-15.4c283.8,0,299.3,1.9,287.7,36.7c-29,94.6-67.6,310.9-67.6,393.9v90.8h-220.1h-218.2L4760.6,4184.2z"/><path d="M4490.3,3340.5c-79.2-156.4-307-484.6-455.7-654.5c-75.3-88.8-135.2-168-131.3-175.7c9.7-21.2,289.6-272.2,307-272.2c19.3,0,185.4,195,314.7,370.7c112,154.5,285.8,428.6,355.3,567.6l38.6,77.2l-181.5,90.7c-100.4,50.2-185.4,90.8-191.1,90.8S4515.4,3392.6,4490.3,3340.5z"/><path d="M5241.3,3344.3c-94.6-48.3-177.6-90.7-181.5-94.6c-27-25.1,328.2-565.7,548.3-834.1c168-202.7,135.2-202.7,345.6-11.6l131.3,119.7l-146.8,175.7c-158.3,191.1-287.7,376.5-415.1,596.6c-44.4,75.3-86.9,139-94.6,137.1C5420.9,3433.2,5337.9,3392.6,5241.3,3344.3z"/><path d="M3387.8,2043c-106.2-94.6-303.1-262.6-440.2-370.7c-139-112-241.3-206.6-237.5-220.1c17.4-42.5,227.8-314.7,245.2-314.7c19.3,0,353.3,260.6,538.7,420.9c252.9,220.1,386.2,341.8,386.2,351.4s-285.7,308.9-293.5,308.9C3582.8,2218.7,3494,2139.5,3387.8,2043z"/><path d="M6226,2064.2l-150.6-150.6l123.6-115.8c270.3-251,766.5-660.3,803.2-660.3c19.3,0,266.4,326.3,254.9,336c-3.9,3.9-98.5,79.2-208.5,166c-110,86.9-280,229.8-374.6,316.6c-94.6,85-200.8,179.6-235.6,208.5l-61.8,52.1L6226,2064.2z"/><path d="M2123.2,1066c-121.6-81.1-339.8-222-482.7-310.8c-142.9-88.8-264.5-166.1-268.4-168c-11.6-11.6,193.1-357.2,212.4-357.2c54.1,0,1002.1,606.3,1002.1,639.1c0,21.2-216.3,343.7-231.7,345.6C2349.1,1214.7,2244.8,1147.1,2123.2,1066z"/><path d="M7486.8,1033.2c-61.8-90.8-112-169.9-112-179.6c1.9-23.2,320.5-235.6,872.7-581.2l129.4-79.2l85,148.7c46.3,81.1,94.6,168,106.2,191.2c21.2,38.6,9.6,48.3-175.7,162.2c-108.1,65.6-324.4,206.6-480.8,310.9c-156.4,104.3-291.5,189.2-299.3,189.2C7602.7,1195.4,7546.7,1122,7486.8,1033.2z"/><path d="M781.3,266.7c-96.5-54.1-231.7-127.4-303.1-164.1L346.8,36.9v-366.8v-366.9h212.4h210.4l5.8,235.6l5.8,237.5l179.6,98.5C1059.3-71.2,1150-17.1,1161.6-5.5c21.2,21.2-154.5,370.7-187.3,370.7C964.7,365.2,877.8,320.8,781.3,266.7z"/><path d="M8848,166.3c-115.9-206.6-127.4-177.6,133.2-318.6l169.9-90.8v-235.6v-237.5h222h222.1v372.6V27.3l-307,160.3c-169.9,86.9-314.7,158.3-324.4,158.3C8956.2,345.9,8904,264.8,8848,166.3z"/><path d="M1957.1-737.3c-79.2-23.2-175.7-133.2-191.1-214.3c-5.8-34.8-7.7-911.3-5.8-1946.2l5.8-1882.5h289.6h289.6l5.8,496.2l3.9,498.1h2664.5h2664.5v-502v-502h289.6H8263l-3.9,1648.9l-5.8,1650.8l-67.6,69.5c-139,142.9-337.9,127.4-463.4-36.7c-23.2-30.9-30.9-173.8-38.6-820.6l-9.6-783.9l-2658.7-5.8l-2660.6-3.9l-3.9,1075.4l-5.8,1077.4l-46.3,65.7c-48.3,65.6-175.7,137.1-243.3,135.2C2034.3-718,1989.9-727.6,1957.1-737.3z"/><path d="M346.8-1671.8v-569.6h212.4h212.4v569.6v569.6H559.2H346.8V-1671.8z"/><path d="M9174.3-1666l5.8-565.7h212.4h212.4l5.8,565.7l3.9,563.8h-222h-222.1L9174.3-1666z"/><path d="M3009.4-1382.2c-166-54.1-305.1-239.4-307-413.2c-1.9-351.4,341.7-569.6,652.6-415.1c274.2,137.1,334,482.7,121.6,708.6C3362.7-1378.3,3173.5-1330,3009.4-1382.2z"/><path d="M3816.4-1538.6c-7.7-7.7-13.5-303.1-13.5-658.4v-642.9h1824.6h1824.6v521.3c0,596.6-7.7,629.4-158.3,727.9l-81.1,54.1l-1691.3,5.8C4590.7-1528.9,3824.2-1532.8,3816.4-1538.6z"/><path d="M2667.6-2426.7c-135.2-94.6-127.4-310.9,15.4-384.2c83-42.5,787.7-42.5,870.8,1.9c59.9,29,113.9,127.4,113.9,200.8c0,65.7-54.1,152.5-115.8,183.4C3468.9-2382.3,2729.4-2382.3,2667.6-2426.7z"/><path d="M346.8-3216.4V-3786h212.4h212.4v569.6v569.6H559.2H346.8V-3216.4z"/><path d="M9189.8-3216.4V-3786h212.4h212.4v569.6v569.6h-212.4h-212.4V-3216.4z"/><path d="M346.8-4490.7V-4790h212.4h212.4v299.3v299.3H559.2H346.8V-4490.7z"/><path d="M9193.6-4484.9l5.8-295.4h212.4h212.4l5.8,295.4l5.8,293.5h-224h-223.9L9193.6-4484.9z"/></g>
</svg>